<?xml version="1.0"?>
<!DOCTYPE svg PUBLIC "-//W3C//DTD SVG 1.1//EN" "http://www.w3.org/Graphics/SVG/1.1/DTD/svg11.dtd">
<svg width="290.70000000000005mm" height="112.32240428842258mm" viewBox="0 0 290.70000000000005 112.32240428842258" xmlns="http://www.w3.org/2000/svg" version="1.1">
<g id="Part__Part2DObjectPython" transform="translate(-68.962704,-95.051126) scale(1,-1)">
<circle cx="109.389598" cy="-202.215" r="1.1" stroke="#f1f3f5" stroke-width="0.7 px" style="stroke-width:0.7;stroke-miterlimit:4;stroke-dasharray:none;stroke-linecap:square;fill:none"/>
<circle cx="214.164598" cy="-202.21499999999995" r="1.1000098547317647" stroke="#f1f3f5" stroke-width="0.7 px" style="stroke-width:0.7;stroke-miterlimit:4;stroke-dasharray:none;stroke-linecap:square;fill:none"/>
<circle cx="318.939598" cy="-202.215" r="1.1" stroke="#f1f3f5" stroke-width="0.7 px" style="stroke-width:0.7;stroke-miterlimit:4;stroke-dasharray:none;stroke-linecap:square;fill:none"/>
<circle cx="318.939598" cy="-100.20966" r="1.1" stroke="#f1f3f5" stroke-width="0.7 px" style="stroke-width:0.7;stroke-miterlimit:4;stroke-dasharray:none;stroke-linecap:square;fill:none"/>
<circle cx="214.164598" cy="-100.20966" r="1.1" stroke="#f1f3f5" stroke-width="0.7 px" style="stroke-width:0.7;stroke-miterlimit:4;stroke-dasharray:none;stroke-linecap:square;fill:none"/>
<circle cx="109.389598" cy="-100.20966" r="1.1" stroke="#f1f3f5" stroke-width="0.7 px" style="stroke-width:0.7;stroke-miterlimit:4;stroke-dasharray:none;stroke-linecap:square;fill:none"/>
<path id="Part__Part2DObjectPython_w0006"  d="M 73.812704 -103.90966 L 103.38019692325139 -103.90965999998977 A 3.7 3.7 0 0 1 107.08 -100.21A 2.3094 2.3094 0 1 0 111.699 -100.21A 3.7 3.7 0 0 1 115.399 -103.91L 208.15519692328846 -103.9096599999535 A 3.7 3.7 0 0 1 211.855 -100.21A 2.3094 2.3094 0 1 0 216.474 -100.21A 3.7 3.7 0 0 1 220.174 -103.91L 312.9301969233246 -103.90965999991724 A 3.7 3.7 0 0 1 316.63 -100.21A 2.3094 2.3094 0 1 0 321.249 -100.21A 3.7 3.7 0 0 1 324.949 -103.91L 354.812704 -103.90965999990281 A 2 2 0 0 0 356.813 -105.91L 356.8127039999787 -196.5096600000426 A 2.00001 2.00001 0 0 0 354.813 -198.51L 324.95433907675806 -198.50966000000003 A 3.70534 3.70534 0 0 1 321.249 -202.215A 2.3094 2.3094 0 1 0 316.63 -202.215A 3.70534 3.70534 0 0 1 312.925 -198.51L 220.17933907675808 -198.50966 A 3.70534 3.70534 0 0 1 216.474 -202.215A 2.3094 2.3094 0 1 0 211.855 -202.215A 3.70534 3.70534 0 0 1 208.15 -198.51L 115.40433907675812 -198.50966 A 3.70534 3.70534 0 0 1 111.699 -202.215A 2.3094 2.3094 0 1 0 107.08 -202.215A 3.70534 3.70534 0 0 1 103.375 -198.51L 73.81270400000001 -198.50966 A 1.99598 1.99598 0 0 0 71.8127 -196.51L 71.812704 -105.90966 A 2.00001 2.00001 0 0 0 73.8127 -103.91" stroke="#f1f3f5" stroke-width="0.7 px" style="stroke-width:0.7;stroke-miterlimit:4;stroke-dasharray:none;stroke-linecap:square;fill:none;fill-opacity:1;fill-rule: evenodd"/>
<circle cx="109.537704" cy="-113.10966" r="1.1" stroke="#f1f3f5" stroke-width="0.7 px" style="stroke-width:0.7;stroke-miterlimit:4;stroke-dasharray:none;stroke-linecap:square;fill:none"/>
<circle cx="76.200204" cy="-132.15966" r="1.1" stroke="#f1f3f5" stroke-width="0.7 px" style="stroke-width:0.7;stroke-miterlimit:4;stroke-dasharray:none;stroke-linecap:square;fill:none"/>
<circle cx="97.631468" cy="-189.30966" r="1.1" stroke="#f1f3f5" stroke-width="0.7 px" style="stroke-width:0.7;stroke-miterlimit:4;stroke-dasharray:none;stroke-linecap:square;fill:none"/>
<circle cx="114.300204" cy="-170.25966" r="1.1" stroke="#f1f3f5" stroke-width="0.7 px" style="stroke-width:0.7;stroke-miterlimit:4;stroke-dasharray:none;stroke-linecap:square;fill:none"/>
<circle cx="123.825204" cy="-151.20966" r="1.1" stroke="#f1f3f5" stroke-width="0.7 px" style="stroke-width:0.7;stroke-miterlimit:4;stroke-dasharray:none;stroke-linecap:square;fill:none"/>
<circle cx="138.112704" cy="-132.15966" r="1.1" stroke="#f1f3f5" stroke-width="0.7 px" style="stroke-width:0.7;stroke-miterlimit:4;stroke-dasharray:none;stroke-linecap:square;fill:none"/>
<circle cx="147.637704" cy="-113.10966" r="1.1" stroke="#f1f3f5" stroke-width="0.7 px" style="stroke-width:0.7;stroke-miterlimit:4;stroke-dasharray:none;stroke-linecap:square;fill:none"/>
<circle cx="185.737704" cy="-113.10966" r="1.1" stroke="#f1f3f5" stroke-width="0.7 px" style="stroke-width:0.7;stroke-miterlimit:4;stroke-dasharray:none;stroke-linecap:square;fill:none"/>
<circle cx="176.212704" cy="-132.15966" r="1.1" stroke="#f1f3f5" stroke-width="0.7 px" style="stroke-width:0.7;stroke-miterlimit:4;stroke-dasharray:none;stroke-linecap:square;fill:none"/>
<circle cx="161.925204" cy="-151.20966" r="1.1" stroke="#f1f3f5" stroke-width="0.7 px" style="stroke-width:0.7;stroke-miterlimit:4;stroke-dasharray:none;stroke-linecap:square;fill:none"/>
<circle cx="152.400204" cy="-170.25966" r="1.1" stroke="#f1f3f5" stroke-width="0.7 px" style="stroke-width:0.7;stroke-miterlimit:4;stroke-dasharray:none;stroke-linecap:square;fill:none"/>
<circle cx="145.256454" cy="-189.30966" r="1.1" stroke="#f1f3f5" stroke-width="0.7 px" style="stroke-width:0.7;stroke-miterlimit:4;stroke-dasharray:none;stroke-linecap:square;fill:none"/>
<circle cx="214.312704" cy="-132.15966" r="1.1" stroke="#f1f3f5" stroke-width="0.7 px" style="stroke-width:0.7;stroke-miterlimit:4;stroke-dasharray:none;stroke-linecap:square;fill:none"/>
<circle cx="223.837704" cy="-113.10966" r="1.1" stroke="#f1f3f5" stroke-width="0.7 px" style="stroke-width:0.7;stroke-miterlimit:4;stroke-dasharray:none;stroke-linecap:square;fill:none"/>
<circle cx="261.937704" cy="-113.10966" r="1.1" stroke="#f1f3f5" stroke-width="0.7 px" style="stroke-width:0.7;stroke-miterlimit:4;stroke-dasharray:none;stroke-linecap:square;fill:none"/>
<circle cx="252.412704" cy="-132.15966" r="1.1" stroke="#f1f3f5" stroke-width="0.7 px" style="stroke-width:0.7;stroke-miterlimit:4;stroke-dasharray:none;stroke-linecap:square;fill:none"/>
<circle cx="238.125204" cy="-151.20966" r="1.1" stroke="#f1f3f5" stroke-width="0.7 px" style="stroke-width:0.7;stroke-miterlimit:4;stroke-dasharray:none;stroke-linecap:square;fill:none"/>
<circle cx="228.600204" cy="-170.25966" r="1.1" stroke="#f1f3f5" stroke-width="0.7 px" style="stroke-width:0.7;stroke-miterlimit:4;stroke-dasharray:none;stroke-linecap:square;fill:none"/>
<circle cx="266.700204" cy="-170.25966" r="1.1" stroke="#f1f3f5" stroke-width="0.7 px" style="stroke-width:0.7;stroke-miterlimit:4;stroke-dasharray:none;stroke-linecap:square;fill:none"/>
<circle cx="276.225204" cy="-151.20966" r="1.1" stroke="#f1f3f5" stroke-width="0.7 px" style="stroke-width:0.7;stroke-miterlimit:4;stroke-dasharray:none;stroke-linecap:square;fill:none"/>
<circle cx="290.512704" cy="-132.15966" r="1.1" stroke="#f1f3f5" stroke-width="0.7 px" style="stroke-width:0.7;stroke-miterlimit:4;stroke-dasharray:none;stroke-linecap:square;fill:none"/>
<circle cx="319.087704" cy="-113.10966" r="1.1" stroke="#f1f3f5" stroke-width="0.7 px" style="stroke-width:0.7;stroke-miterlimit:4;stroke-dasharray:none;stroke-linecap:square;fill:none"/>
<circle cx="304.800204" cy="-170.25966" r="1.1" stroke="#f1f3f5" stroke-width="0.7 px" style="stroke-width:0.7;stroke-miterlimit:4;stroke-dasharray:none;stroke-linecap:square;fill:none"/>
<circle cx="309.432392" cy="-189.30966" r="1.1" stroke="#f1f3f5" stroke-width="0.7 px" style="stroke-width:0.7;stroke-miterlimit:4;stroke-dasharray:none;stroke-linecap:square;fill:none"/>
<circle cx="314.325204" cy="-151.20966" r="1.1" stroke="#f1f3f5" stroke-width="0.7 px" style="stroke-width:0.7;stroke-miterlimit:4;stroke-dasharray:none;stroke-linecap:square;fill:none"/>
<path id="Part__Part2DObjectPython_w0032"  d="M 73.635 -107.416 L 74.93599999999999 -106.11500000000001 L 86.93399999999998 -106.11500000000001 L 88.235 -107.416 L 88.235 -118.814 L 86.934 -120.115 L 74.936 -120.115 L 73.635 -118.814 L 73.635 -107.416 " stroke="#f1f3f5" stroke-width="0.7 px" style="stroke-width:0.7;stroke-miterlimit:4;stroke-dasharray:none;stroke-linecap:square;fill:none;fill-opacity:1;fill-rule: evenodd"/>
<path id="Part__Part2DObjectPython_w0033"  d="M 93.986 -106.115 L 105.984 -106.115 L 107.285 -107.416 L 107.285 -118.814 L 105.984 -120.115 L 93.986 -120.115 L 92.685 -118.814 L 92.685 -107.416 L 93.986 -106.115 " stroke="#f1f3f5" stroke-width="0.7 px" style="stroke-width:0.7;stroke-miterlimit:4;stroke-dasharray:none;stroke-linecap:square;fill:none;fill-opacity:1;fill-rule: evenodd"/>
<path id="Part__Part2DObjectPython_w0034"  d="M 111.735 -107.416 L 113.036 -106.115 L 125.034 -106.115 L 126.335 -107.416 L 126.335 -118.814 L 125.034 -120.115 L 113.036 -120.11500000000001 L 111.735 -118.814 L 111.735 -107.416 " stroke="#f1f3f5" stroke-width="0.7 px" style="stroke-width:0.7;stroke-miterlimit:4;stroke-dasharray:none;stroke-linecap:square;fill:none;fill-opacity:1;fill-rule: evenodd"/>
<path id="Part__Part2DObjectPython_w0035"  d="M 130.785 -107.416 L 132.086 -106.115 L 144.084 -106.115 L 145.385 -107.416 L 145.385 -118.814 L 144.084 -120.115 L 132.086 -120.115 L 130.785 -118.814 L 130.785 -107.416 " stroke="#f1f3f5" stroke-width="0.7 px" style="stroke-width:0.7;stroke-miterlimit:4;stroke-dasharray:none;stroke-linecap:square;fill:none;fill-opacity:1;fill-rule: evenodd"/>
<path id="Part__Part2DObjectPython_w0036"  d="M 149.835 -107.416 L 151.136 -106.115 L 163.134 -106.115 L 164.435 -107.416 L 164.435 -118.814 L 163.134 -120.115 L 151.136 -120.115 L 149.835 -118.814 L 149.835 -107.416 " stroke="#f1f3f5" stroke-width="0.7 px" style="stroke-width:0.7;stroke-miterlimit:4;stroke-dasharray:none;stroke-linecap:square;fill:none;fill-opacity:1;fill-rule: evenodd"/>
<path id="Part__Part2DObjectPython_w0037"  d="M 168.885 -107.416 L 170.186 -106.115 L 182.184 -106.115 L 183.485 -107.416 L 183.485 -118.814 L 182.184 -120.115 L 170.186 -120.115 L 168.885 -118.814 L 168.885 -107.416 " stroke="#f1f3f5" stroke-width="0.7 px" style="stroke-width:0.7;stroke-miterlimit:4;stroke-dasharray:none;stroke-linecap:square;fill:none;fill-opacity:1;fill-rule: evenodd"/>
<path id="Part__Part2DObjectPython_w0038"  d="M 189.236 -120.115 L 187.935 -118.814 L 187.935 -107.416 L 189.236 -106.11500000000001 L 201.23400000000004 -106.11500000000001 L 202.535 -107.416 L 202.535 -118.814 L 201.234 -120.115 L 189.236 -120.115 " stroke="#f1f3f5" stroke-width="0.7 px" style="stroke-width:0.7;stroke-miterlimit:4;stroke-dasharray:none;stroke-linecap:square;fill:none;fill-opacity:1;fill-rule: evenodd"/>
<path id="Part__Part2DObjectPython_w0039"  d="M 208.286 -106.11500000000001 L 220.284 -106.11500000000001 L 221.585 -107.416 L 221.585 -118.814 L 220.284 -120.115 L 208.286 -120.115 L 206.985 -118.814 L 206.985 -107.416 L 208.286 -106.11500000000001 " stroke="#f1f3f5" stroke-width="0.7 px" style="stroke-width:0.7;stroke-miterlimit:4;stroke-dasharray:none;stroke-linecap:square;fill:none;fill-opacity:1;fill-rule: evenodd"/>
<path id="Part__Part2DObjectPython_w0040"  d="M 226.035 -107.416 L 227.336 -106.115 L 239.334 -106.115 L 240.635 -107.416 L 240.635 -118.814 L 239.334 -120.115 L 227.336 -120.115 L 226.035 -118.814 L 226.035 -107.416 " stroke="#f1f3f5" stroke-width="0.7 px" style="stroke-width:0.7;stroke-miterlimit:4;stroke-dasharray:none;stroke-linecap:square;fill:none;fill-opacity:1;fill-rule: evenodd"/>
<path id="Part__Part2DObjectPython_w0041"  d="M 245.085 -107.416 L 246.386 -106.115 L 258.384 -106.115 L 259.685 -107.416 L 259.685 -118.814 L 258.384 -120.115 L 246.386 -120.115 L 245.085 -118.814 L 245.085 -107.416 " stroke="#f1f3f5" stroke-width="0.7 px" style="stroke-width:0.7;stroke-miterlimit:4;stroke-dasharray:none;stroke-linecap:square;fill:none;fill-opacity:1;fill-rule: evenodd"/>
<path id="Part__Part2DObjectPython_w0042"  d="M 264.135 -107.416 L 265.43600000000004 -106.11500000000001 L 277.43399999999997 -106.11500000000001 L 278.735 -107.416 L 278.735 -118.814 L 277.434 -120.115 L 265.436 -120.115 L 264.135 -118.814 L 264.135 -107.416 " stroke="#f1f3f5" stroke-width="0.7 px" style="stroke-width:0.7;stroke-miterlimit:4;stroke-dasharray:none;stroke-linecap:square;fill:none;fill-opacity:1;fill-rule: evenodd"/>
<path id="Part__Part2DObjectPython_w0043"  d="M 283.185 -107.416 L 284.486 -106.115 L 296.484 -106.115 L 297.785 -107.416 L 297.785 -118.814 L 296.484 -120.115 L 284.486 -120.115 L 283.185 -118.814 L 283.185 -107.416 " stroke="#f1f3f5" stroke-width="0.7 px" style="stroke-width:0.7;stroke-miterlimit:4;stroke-dasharray:none;stroke-linecap:square;fill:none;fill-opacity:1;fill-rule: evenodd"/>
<path id="Part__Part2DObjectPython_w0044"  d="M 302.235 -118.814 L 302.235 -107.416 L 303.536 -106.115 L 315.534 -106.115 L 316.835 -107.416 L 316.835 -118.814 L 315.534 -120.115 L 303.536 -120.115 L 302.235 -118.814 " stroke="#f1f3f5" stroke-width="0.7 px" style="stroke-width:0.7;stroke-miterlimit:4;stroke-dasharray:none;stroke-linecap:square;fill:none;fill-opacity:1;fill-rule: evenodd"/>
<path id="Part__Part2DObjectPython_w0045"  d="M 321.285 -118.814 L 321.285 -107.416 L 322.586 -106.115 L 334.584 -106.115 L 335.885 -107.416 L 335.885 -118.814 L 334.584 -120.115 L 322.586 -120.115 L 321.285 -118.814 " stroke="#f1f3f5" stroke-width="0.7 px" style="stroke-width:0.7;stroke-miterlimit:4;stroke-dasharray:none;stroke-linecap:square;fill:none;fill-opacity:1;fill-rule: evenodd"/>
<path id="Part__Part2DObjectPython_w0046"  d="M 340.335 -107.416 L 341.636 -106.115 L 353.634 -106.115 L 354.935 -107.416 L 354.935 -118.814 L 353.634 -120.115 L 341.636 -120.115 L 340.335 -118.814 L 340.335 -107.416 " stroke="#f1f3f5" stroke-width="0.7 px" style="stroke-width:0.7;stroke-miterlimit:4;stroke-dasharray:none;stroke-linecap:square;fill:none;fill-opacity:1;fill-rule: evenodd"/>
<path id="Part__Part2DObjectPython_w0047"  d="M 335.572 -126.466 L 336.87300000000005 -125.165 L 348.87199999999996 -125.165 L 350.173 -126.466 L 350.173 -137.864 L 348.872 -139.165 L 336.873 -139.165 L 335.572 -137.864 L 335.572 -126.466 " stroke="#f1f3f5" stroke-width="0.7 px" style="stroke-width:0.7;stroke-miterlimit:4;stroke-dasharray:none;stroke-linecap:square;fill:none;fill-opacity:1;fill-rule: evenodd"/>
<path id="Part__Part2DObjectPython_w0048"  d="M 319.729 -144.215 L 351.729 -144.215 L 351.729 -156.483 L 348.729 -158.215 L 322.729 -158.215 L 319.729 -156.483 L 319.729 -144.215 " stroke="#f1f3f5" stroke-width="0.7 px" style="stroke-width:0.7;stroke-miterlimit:4;stroke-dasharray:none;stroke-linecap:square;fill:none;fill-opacity:1;fill-rule: evenodd"/>
<path id="Part__Part2DObjectPython_w0049"  d="M 314.141 -164.566 L 315.442 -163.265 L 327.44 -163.265 L 328.741 -164.566 L 328.741 -175.964 L 327.44 -177.265 L 315.442 -177.265 L 314.141 -175.964 L 314.141 -164.566 " stroke="#f1f3f5" stroke-width="0.7 px" style="stroke-width:0.7;stroke-miterlimit:4;stroke-dasharray:none;stroke-linecap:square;fill:none;fill-opacity:1;fill-rule: evenodd"/>
<path id="Part__Part2DObjectPython_w0050"  d="M 340.335 -164.566 L 341.636 -163.265 L 353.634 -163.265 L 354.935 -164.566 L 354.935 -175.964 L 353.634 -177.265 L 341.636 -177.265 L 340.335 -175.964 L 340.335 -164.566 " stroke="#f1f3f5" stroke-width="0.7 px" style="stroke-width:0.7;stroke-miterlimit:4;stroke-dasharray:none;stroke-linecap:square;fill:none;fill-opacity:1;fill-rule: evenodd"/>
<path id="Part__Part2DObjectPython_w0051"  d="M 351.253 -196.315 L 339.255 -196.315 L 337.954 -195.014 L 337.954 -183.616 L 339.255 -182.315 L 351.253 -182.315 L 352.554 -183.616 L 352.554 -195.014 L 351.253 -196.315 " stroke="#f1f3f5" stroke-width="0.7 px" style="stroke-width:0.7;stroke-miterlimit:4;stroke-dasharray:none;stroke-linecap:square;fill:none;fill-opacity:1;fill-rule: evenodd"/>
<path id="Part__Part2DObjectPython_w0052"  d="M 327.44 -196.315 L 315.442 -196.315 L 314.141 -195.014 L 314.141 -183.616 L 315.442 -182.315 L 327.44 -182.315 L 328.741 -183.616 L 328.741 -195.014 L 327.44 -196.315 " stroke="#f1f3f5" stroke-width="0.7 px" style="stroke-width:0.7;stroke-miterlimit:4;stroke-dasharray:none;stroke-linecap:square;fill:none;fill-opacity:1;fill-rule: evenodd"/>
<path id="Part__Part2DObjectPython_w0053"  d="M 78.398 -126.466 L 79.698 -125.165 L 91.697 -125.165 L 92.998 -126.466 L 92.998 -137.864 L 91.697 -139.165 L 79.698 -139.165 L 78.398 -137.864 L 78.398 -126.466 " stroke="#f1f3f5" stroke-width="0.7 px" style="stroke-width:0.7;stroke-miterlimit:4;stroke-dasharray:none;stroke-linecap:square;fill:none;fill-opacity:1;fill-rule: evenodd"/>
<path id="Part__Part2DObjectPython_w0054"  d="M 102.21 -126.466 L 103.511 -125.165 L 115.509 -125.165 L 116.81 -126.466 L 116.81 -137.864 L 115.509 -139.165 L 103.511 -139.165 L 102.21 -137.864 L 102.21 -126.466 " stroke="#f1f3f5" stroke-width="0.7 px" style="stroke-width:0.7;stroke-miterlimit:4;stroke-dasharray:none;stroke-linecap:square;fill:none;fill-opacity:1;fill-rule: evenodd"/>
<path id="Part__Part2DObjectPython_w0055"  d="M 134.559 -139.165 L 122.561 -139.165 L 121.26 -137.864 L 121.26 -126.466 L 122.561 -125.165 L 134.559 -125.165 L 135.86 -126.466 L 135.86 -137.864 L 134.559 -139.165 " stroke="#f1f3f5" stroke-width="0.7 px" style="stroke-width:0.7;stroke-miterlimit:4;stroke-dasharray:none;stroke-linecap:square;fill:none;fill-opacity:1;fill-rule: evenodd"/>
<path id="Part__Part2DObjectPython_w0056"  d="M 154.91 -137.864 L 153.609 -139.165 L 141.611 -139.165 L 140.31 -137.864 L 140.31 -126.466 L 141.611 -125.165 L 153.609 -125.165 L 154.91 -126.466 L 154.91 -137.864 " stroke="#f1f3f5" stroke-width="0.7 px" style="stroke-width:0.7;stroke-miterlimit:4;stroke-dasharray:none;stroke-linecap:square;fill:none;fill-opacity:1;fill-rule: evenodd"/>
<path id="Part__Part2DObjectPython_w0057"  d="M 173.96 -137.864 L 172.659 -139.165 L 160.661 -139.165 L 159.36 -137.864 L 159.36 -126.466 L 160.661 -125.165 L 172.659 -125.165 L 173.96 -126.466 L 173.96 -137.864 " stroke="#f1f3f5" stroke-width="0.7 px" style="stroke-width:0.7;stroke-miterlimit:4;stroke-dasharray:none;stroke-linecap:square;fill:none;fill-opacity:1;fill-rule: evenodd"/>
<path id="Part__Part2DObjectPython_w0058"  d="M 193.01 -137.864 L 191.709 -139.165 L 179.711 -139.165 L 178.41 -137.864 L 178.41 -126.466 L 179.711 -125.165 L 191.709 -125.165 L 193.01 -126.466 L 193.01 -137.864 " stroke="#f1f3f5" stroke-width="0.7 px" style="stroke-width:0.7;stroke-miterlimit:4;stroke-dasharray:none;stroke-linecap:square;fill:none;fill-opacity:1;fill-rule: evenodd"/>
<path id="Part__Part2DObjectPython_w0059"  d="M 212.06 -137.864 L 210.759 -139.165 L 198.761 -139.165 L 197.46 -137.864 L 197.46 -126.466 L 198.761 -125.165 L 210.759 -125.165 L 212.06 -126.466 L 212.06 -137.864 " stroke="#f1f3f5" stroke-width="0.7 px" style="stroke-width:0.7;stroke-miterlimit:4;stroke-dasharray:none;stroke-linecap:square;fill:none;fill-opacity:1;fill-rule: evenodd"/>
<path id="Part__Part2DObjectPython_w0060"  d="M 231.11 -137.864 L 229.809 -139.165 L 217.811 -139.165 L 216.51 -137.864 L 216.51 -126.466 L 217.811 -125.165 L 229.809 -125.165 L 231.11 -126.466 L 231.11 -137.864 " stroke="#f1f3f5" stroke-width="0.7 px" style="stroke-width:0.7;stroke-miterlimit:4;stroke-dasharray:none;stroke-linecap:square;fill:none;fill-opacity:1;fill-rule: evenodd"/>
<path id="Part__Part2DObjectPython_w0061"  d="M 250.16 -137.864 L 248.859 -139.165 L 236.861 -139.165 L 235.56 -137.864 L 235.56 -126.466 L 236.861 -125.165 L 248.859 -125.165 L 250.16 -126.466 L 250.16 -137.864 " stroke="#f1f3f5" stroke-width="0.7 px" style="stroke-width:0.7;stroke-miterlimit:4;stroke-dasharray:none;stroke-linecap:square;fill:none;fill-opacity:1;fill-rule: evenodd"/>
<path id="Part__Part2DObjectPython_w0062"  d="M 269.21 -137.864 L 267.909 -139.165 L 255.911 -139.165 L 254.61 -137.864 L 254.61 -126.466 L 255.911 -125.165 L 267.909 -125.165 L 269.21 -126.466 L 269.21 -137.864 " stroke="#f1f3f5" stroke-width="0.7 px" style="stroke-width:0.7;stroke-miterlimit:4;stroke-dasharray:none;stroke-linecap:square;fill:none;fill-opacity:1;fill-rule: evenodd"/>
<path id="Part__Part2DObjectPython_w0063"  d="M 272.671 -144.215 L 273.973 -145.516 L 273.973 -156.914 L 272.671 -158.215 L 260.674 -158.215 L 259.372 -156.914 L 259.372 -145.516 L 260.674 -144.215 L 272.671 -144.215 " stroke="#f1f3f5" stroke-width="0.7 px" style="stroke-width:0.7;stroke-miterlimit:4;stroke-dasharray:none;stroke-linecap:square;fill:none;fill-opacity:1;fill-rule: evenodd"/>
<path id="Part__Part2DObjectPython_w0064"  d="M 288.26 -137.864 L 286.959 -139.165 L 274.961 -139.165 L 273.66 -137.864 L 273.66 -126.466 L 274.961 -125.165 L 286.95900000000006 -125.165 L 288.26 -126.466 L 288.26 -137.864 " stroke="#f1f3f5" stroke-width="0.7 px" style="stroke-width:0.7;stroke-miterlimit:4;stroke-dasharray:none;stroke-linecap:square;fill:none;fill-opacity:1;fill-rule: evenodd"/>
<path id="Part__Part2DObjectPython_w0065"  d="M 307.31 -137.864 L 306.009 -139.165 L 294.011 -139.165 L 292.71 -137.864 L 292.71 -126.466 L 294.01099999999997 -125.165 L 306.009 -125.165 L 307.31 -126.466 L 307.31 -137.864 " stroke="#f1f3f5" stroke-width="0.7 px" style="stroke-width:0.7;stroke-miterlimit:4;stroke-dasharray:none;stroke-linecap:square;fill:none;fill-opacity:1;fill-rule: evenodd"/>
<path id="Part__Part2DObjectPython_w0066"  d="M 326.36 -137.864 L 325.059 -139.165 L 313.061 -139.165 L 311.76 -137.864 L 311.76 -126.466 L 313.061 -125.165 L 325.059 -125.165 L 326.36 -126.466 L 326.36 -137.864 " stroke="#f1f3f5" stroke-width="0.7 px" style="stroke-width:0.7;stroke-miterlimit:4;stroke-dasharray:none;stroke-linecap:square;fill:none;fill-opacity:1;fill-rule: evenodd"/>
<path id="Part__Part2DObjectPython_w0067"  d="M 297.473 -156.914 L 298.774 -158.215 L 310.77200000000005 -158.215 L 312.073 -156.914 L 312.073 -145.516 L 310.772 -144.215 L 298.774 -144.215 L 297.473 -145.516 L 297.473 -156.914 " stroke="#f1f3f5" stroke-width="0.7 px" style="stroke-width:0.7;stroke-miterlimit:4;stroke-dasharray:none;stroke-linecap:square;fill:none;fill-opacity:1;fill-rule: evenodd"/>
<path id="Part__Part2DObjectPython_w0068"  d="M 291.722 -158.215 L 279.724 -158.215 L 278.423 -156.914 L 278.423 -145.516 L 279.72399999999993 -144.215 L 291.722 -144.215 L 293.023 -145.51600000000002 L 293.023 -156.914 L 291.722 -158.215 " stroke="#f1f3f5" stroke-width="0.7 px" style="stroke-width:0.7;stroke-miterlimit:4;stroke-dasharray:none;stroke-linecap:square;fill:none;fill-opacity:1;fill-rule: evenodd"/>
<path id="Part__Part2DObjectPython_w0069"  d="M 289.249 -177.265 L 301.247 -177.265 L 302.548 -175.964 L 302.548 -164.566 L 301.247 -163.265 L 289.249 -163.265 L 287.948 -164.566 L 287.948 -175.964 L 289.249 -177.265 " stroke="#f1f3f5" stroke-width="0.7 px" style="stroke-width:0.7;stroke-miterlimit:4;stroke-dasharray:none;stroke-linecap:square;fill:none;fill-opacity:1;fill-rule: evenodd"/>
<path id="Part__Part2DObjectPython_w0070"  d="M 268.897 -164.566 L 270.199 -163.265 L 282.197 -163.265 L 283.498 -164.566 L 283.498 -175.964 L 282.197 -177.265 L 270.199 -177.265 L 268.897 -175.964 L 268.897 -164.566 " stroke="#f1f3f5" stroke-width="0.7 px" style="stroke-width:0.7;stroke-miterlimit:4;stroke-dasharray:none;stroke-linecap:square;fill:none;fill-opacity:1;fill-rule: evenodd"/>
<path id="Part__Part2DObjectPython_w0071"  d="M 249.848 -175.964 L 251.149 -177.265 L 263.147 -177.265 L 264.448 -175.964 L 264.448 -164.566 L 263.147 -163.265 L 251.149 -163.265 L 249.848 -164.566 L 249.848 -175.964 " stroke="#f1f3f5" stroke-width="0.7 px" style="stroke-width:0.7;stroke-miterlimit:4;stroke-dasharray:none;stroke-linecap:square;fill:none;fill-opacity:1;fill-rule: evenodd"/>
<path id="Part__Part2DObjectPython_w0072"  d="M 245.398 -164.566 L 245.398 -175.964 L 244.097 -177.265 L 232.099 -177.265 L 230.798 -175.964 L 230.798 -164.566 L 232.099 -163.265 L 244.097 -163.265 L 245.398 -164.566 " stroke="#f1f3f5" stroke-width="0.7 px" style="stroke-width:0.7;stroke-miterlimit:4;stroke-dasharray:none;stroke-linecap:square;fill:none;fill-opacity:1;fill-rule: evenodd"/>
<path id="Part__Part2DObjectPython_w0073"  d="M 241.624 -158.215 L 240.323 -156.914 L 240.323 -145.51600000000002 L 241.624 -144.215 L 253.622 -144.215 L 254.923 -145.516 L 254.923 -156.914 L 253.622 -158.215 L 241.624 -158.215 " stroke="#f1f3f5" stroke-width="0.7 px" style="stroke-width:0.7;stroke-miterlimit:4;stroke-dasharray:none;stroke-linecap:square;fill:none;fill-opacity:1;fill-rule: evenodd"/>
<path id="Part__Part2DObjectPython_w0074"  d="M 222.574 -158.215 L 221.272 -156.914 L 221.272 -145.516 L 222.574 -144.215 L 234.572 -144.215 L 235.873 -145.516 L 235.873 -156.914 L 234.572 -158.215 L 222.574 -158.215 " stroke="#f1f3f5" stroke-width="0.7 px" style="stroke-width:0.7;stroke-miterlimit:4;stroke-dasharray:none;stroke-linecap:square;fill:none;fill-opacity:1;fill-rule: evenodd"/>
<path id="Part__Part2DObjectPython_w0075"  d="M 211.747 -164.566 L 213.049 -163.265 L 225.046 -163.265 L 226.348 -164.566 L 226.34799999999998 -175.964 L 225.046 -177.265 L 213.049 -177.265 L 211.747 -175.964 L 211.747 -164.566 " stroke="#f1f3f5" stroke-width="0.7 px" style="stroke-width:0.7;stroke-miterlimit:4;stroke-dasharray:none;stroke-linecap:square;fill:none;fill-opacity:1;fill-rule: evenodd"/>
<path id="Part__Part2DObjectPython_w0076"  d="M 215.522 -158.215 L 203.524 -158.215 L 202.22299999999998 -156.914 L 202.22299999999998 -152.10116859937483 L 202.22299999999998 -149.7181514006252 L 202.22299999999998 -145.51600000000002 L 203.524 -144.215 L 215.522 -144.215 L 216.823 -145.516 L 216.823 -156.914 L 215.522 -158.215 " stroke="#f1f3f5" stroke-width="0.7 px" style="stroke-width:0.7;stroke-miterlimit:4;stroke-dasharray:none;stroke-linecap:square;fill:none;fill-opacity:1;fill-rule: evenodd"/>
<path id="Part__Part2DObjectPython_w0077"  d="M 193.999 -163.265 L 205.997 -163.265 L 207.298 -164.566 L 207.298 -175.964 L 205.997 -177.265 L 193.999 -177.265 L 192.698 -175.964 L 192.698 -164.566 L 193.999 -163.265 " stroke="#f1f3f5" stroke-width="0.7 px" style="stroke-width:0.7;stroke-miterlimit:4;stroke-dasharray:none;stroke-linecap:square;fill:none;fill-opacity:1;fill-rule: evenodd"/>
<path id="Part__Part2DObjectPython_w0078"  d="M 196.47199999999998 -158.215 L 184.474 -158.215 L 183.173 -156.914 L 183.173 -145.516 L 184.474 -144.215 L 196.472 -144.215 L 197.773 -145.51600000000002 L 197.773 -149.82449773453737 L 197.773 -151.99482226546203 L 197.773 -156.914 L 196.47199999999998 -158.215 " stroke="#f1f3f5" stroke-width="0.7 px" style="stroke-width:0.7;stroke-miterlimit:4;stroke-dasharray:none;stroke-linecap:square;fill:none;fill-opacity:1;fill-rule: evenodd"/>
<path id="Part__Part2DObjectPython_w0079"  d="M 173.648 -164.566 L 174.949 -163.265 L 186.946 -163.265 L 188.247 -164.566 L 188.247 -175.964 L 186.946 -177.265 L 174.949 -177.265 L 173.648 -175.964 L 173.648 -164.566 " stroke="#f1f3f5" stroke-width="0.7 px" style="stroke-width:0.7;stroke-miterlimit:4;stroke-dasharray:none;stroke-linecap:square;fill:none;fill-opacity:1;fill-rule: evenodd"/>
<path id="Part__Part2DObjectPython_w0080"  d="M 169.198 -175.964 L 167.896 -177.265 L 155.899 -177.265 L 154.598 -175.964 L 154.598 -164.566 L 155.899 -163.265 L 167.89600000000002 -163.265 L 169.198 -164.566 L 169.198 -175.964 " stroke="#f1f3f5" stroke-width="0.7 px" style="stroke-width:0.7;stroke-miterlimit:4;stroke-dasharray:none;stroke-linecap:square;fill:none;fill-opacity:1;fill-rule: evenodd"/>
<path id="Part__Part2DObjectPython_w0081"  d="M 164.123 -145.516 L 165.424 -144.215 L 177.422 -144.215 L 178.723 -145.516 L 178.723 -156.914 L 177.422 -158.215 L 165.424 -158.215 L 164.123 -156.914 L 164.123 -145.516 " stroke="#f1f3f5" stroke-width="0.7 px" style="stroke-width:0.7;stroke-miterlimit:4;stroke-dasharray:none;stroke-linecap:square;fill:none;fill-opacity:1;fill-rule: evenodd"/>
<path id="Part__Part2DObjectPython_w0082"  d="M 146.374 -158.215 L 145.073 -156.914 L 145.073 -145.516 L 146.374 -144.215 L 158.372 -144.215 L 159.673 -145.516 L 159.673 -156.914 L 158.372 -158.215 L 146.374 -158.215 " stroke="#f1f3f5" stroke-width="0.7 px" style="stroke-width:0.7;stroke-miterlimit:4;stroke-dasharray:none;stroke-linecap:square;fill:none;fill-opacity:1;fill-rule: evenodd"/>
<path id="Part__Part2DObjectPython_w0083"  d="M 135.548 -164.566 L 136.849 -163.265 L 148.847 -163.265 L 150.148 -164.566 L 150.148 -175.964 L 148.847 -177.265 L 136.849 -177.265 L 135.548 -175.964 L 135.548 -164.566 " stroke="#f1f3f5" stroke-width="0.7 px" style="stroke-width:0.7;stroke-miterlimit:4;stroke-dasharray:none;stroke-linecap:square;fill:none;fill-opacity:1;fill-rule: evenodd"/>
<path id="Part__Part2DObjectPython_w0084"  d="M 127.324 -158.215 L 126.023 -156.914 L 126.023 -145.516 L 127.324 -144.215 L 139.322 -144.215 L 140.623 -145.516 L 140.623 -156.914 L 139.322 -158.215 L 127.324 -158.215 " stroke="#f1f3f5" stroke-width="0.7 px" style="stroke-width:0.7;stroke-miterlimit:4;stroke-dasharray:none;stroke-linecap:square;fill:none;fill-opacity:1;fill-rule: evenodd"/>
<path id="Part__Part2DObjectPython_w0085"  d="M 116.498 -164.566 L 117.799 -163.265 L 129.797 -163.265 L 131.098 -164.566 L 131.098 -175.964 L 129.797 -177.265 L 117.799 -177.265 L 116.498 -175.964 L 116.498 -164.566 " stroke="#f1f3f5" stroke-width="0.7 px" style="stroke-width:0.7;stroke-miterlimit:4;stroke-dasharray:none;stroke-linecap:square;fill:none;fill-opacity:1;fill-rule: evenodd"/>
<path id="Part__Part2DObjectPython_w0086"  d="M 108.273 -158.215 L 106.973 -156.914 L 106.973 -145.516 L 108.273 -144.215 L 120.272 -144.215 L 121.572 -145.516 L 121.572 -156.914 L 120.272 -158.215 L 108.273 -158.215 " stroke="#f1f3f5" stroke-width="0.7 px" style="stroke-width:0.7;stroke-miterlimit:4;stroke-dasharray:none;stroke-linecap:square;fill:none;fill-opacity:1;fill-rule: evenodd"/>
<path id="Part__Part2DObjectPython_w0087"  d="M 82.08000000000001 -158.215 L 80.779 -156.914 L 80.779 -145.516 L 82.08 -144.215 L 94.078 -144.215 L 95.379 -145.516 L 95.379 -156.914 L 94.078 -158.215 L 82.08000000000001 -158.215 " stroke="#f1f3f5" stroke-width="0.7 px" style="stroke-width:0.7;stroke-miterlimit:4;stroke-dasharray:none;stroke-linecap:square;fill:none;fill-opacity:1;fill-rule: evenodd"/>
<path id="Part__Part2DObjectPython_w0088"  d="M 79.841 -177.265 L 76.841 -175.533 L 76.841 -163.265 L 108.841 -163.265 L 108.841 -175.533 L 105.841 -177.265 L 79.841 -177.265 " stroke="#f1f3f5" stroke-width="0.7 px" style="stroke-width:0.7;stroke-miterlimit:4;stroke-dasharray:none;stroke-linecap:square;fill:none;fill-opacity:1;fill-rule: evenodd"/>
<path id="Part__Part2DObjectPython_w0089"  d="M 90.616 -195.014 L 89.315 -196.315 L 77.317 -196.315 L 76.016 -195.014 L 76.016 -183.616 L 77.31700000000001 -182.315 L 89.315 -182.315 L 90.616 -183.616 L 90.616 -195.014 " stroke="#f1f3f5" stroke-width="0.7 px" style="stroke-width:0.7;stroke-miterlimit:4;stroke-dasharray:none;stroke-linecap:square;fill:none;fill-opacity:1;fill-rule: evenodd"/>
<path id="Part__Part2DObjectPython_w0090"  d="M 114.429 -195.014 L 113.128 -196.315 L 101.13 -196.315 L 99.829 -195.014 L 99.829 -183.616 L 101.13 -182.315 L 113.128 -182.315 L 114.429 -183.616 L 114.429 -195.014 " stroke="#f1f3f5" stroke-width="0.7 px" style="stroke-width:0.7;stroke-miterlimit:4;stroke-dasharray:none;stroke-linecap:square;fill:none;fill-opacity:1;fill-rule: evenodd"/>
<path id="Part__Part2DObjectPython_w0091"  d="M 138.241 -195.014 L 136.94 -196.315 L 124.942 -196.315 L 123.641 -195.014 L 123.641 -183.616 L 124.942 -182.315 L 136.94 -182.315 L 138.241 -183.616 L 138.241 -195.014 " stroke="#f1f3f5" stroke-width="0.7 px" style="stroke-width:0.7;stroke-miterlimit:4;stroke-dasharray:none;stroke-linecap:square;fill:none;fill-opacity:1;fill-rule: evenodd"/>
<path id="Part__Part2DObjectPython_w0092"  d="M 151.279 -196.315 L 148.279 -194.583 L 148.279 -182.315 L 180.279 -182.315 L 180.279 -194.583 L 177.279 -196.315 L 151.279 -196.315 " stroke="#f1f3f5" stroke-width="0.7 px" style="stroke-width:0.7;stroke-miterlimit:4;stroke-dasharray:none;stroke-linecap:square;fill:none;fill-opacity:1;fill-rule: evenodd"/>
<path id="Part__Part2DObjectPython_w0093"  d="M 204.916 -195.014 L 203.615 -196.315 L 191.617 -196.315 L 190.316 -195.014 L 190.316 -183.616 L 191.617 -182.315 L 203.615 -182.315 L 204.916 -183.616 L 204.916 -195.014 " stroke="#f1f3f5" stroke-width="0.7 px" style="stroke-width:0.7;stroke-miterlimit:4;stroke-dasharray:none;stroke-linecap:square;fill:none;fill-opacity:1;fill-rule: evenodd"/>
<path id="Part__Part2DObjectPython_w0094"  d="M 251.716 -194.583 L 248.716 -196.315 L 222.716 -196.315 L 219.716 -194.583 L 219.716 -182.315 L 251.716 -182.315 L 251.716 -194.583 " stroke="#f1f3f5" stroke-width="0.7 px" style="stroke-width:0.7;stroke-miterlimit:4;stroke-dasharray:none;stroke-linecap:square;fill:none;fill-opacity:1;fill-rule: evenodd"/>
<path id="Part__Part2DObjectPython_w0095"  d="M 281.116 -195.014 L 279.815 -196.315 L 267.817 -196.315 L 266.516 -195.014 L 266.516 -183.616 L 267.817 -182.315 L 279.815 -182.315 L 281.116 -183.616 L 281.116 -195.014 " stroke="#f1f3f5" stroke-width="0.7 px" style="stroke-width:0.7;stroke-miterlimit:4;stroke-dasharray:none;stroke-linecap:square;fill:none;fill-opacity:1;fill-rule: evenodd"/>
<path id="Part__Part2DObjectPython_w0096"  d="M 304.929 -195.014 L 303.628 -196.315 L 291.63 -196.315 L 290.329 -195.014 L 290.329 -183.616 L 291.63 -182.315 L 303.628 -182.315 L 304.929 -183.616 L 304.929 -195.014 " stroke="#f1f3f5" stroke-width="0.7 px" style="stroke-width:0.7;stroke-miterlimit:4;stroke-dasharray:none;stroke-linecap:square;fill:none;fill-opacity:1;fill-rule: evenodd"/>
<circle cx="331.1032927294349" cy="-131.8096600000006" r="1.0999999999993197" stroke="#f1f3f5" stroke-width="0.7 px" style="stroke-width:0.7;stroke-miterlimit:4;stroke-dasharray:none;stroke-linecap:square;fill:none"/>
<circle cx="97.012704" cy="-131.80966" r="1.1000066460628837" stroke="#f1f3f5" stroke-width="0.7 px" style="stroke-width:0.7;stroke-miterlimit:4;stroke-dasharray:none;stroke-linecap:square;fill:none"/>
<circle cx="74.112704" cy="-160.40966" r="1.1" stroke="#f1f3f5" stroke-width="0.7 px" style="stroke-width:0.7;stroke-miterlimit:4;stroke-dasharray:none;stroke-linecap:square;fill:none"/>
<circle cx="354.512704" cy="-160.40965999999997" r="1.1" stroke="#f1f3f5" stroke-width="0.7 px" style="stroke-width:0.7;stroke-miterlimit:4;stroke-dasharray:none;stroke-linecap:square;fill:none"/>
<title>b'Part__Part2DObjectPython'</title>
</g>
</svg>